<?xml version="1.0" encoding="iso-8859-1"?>
<!-- Generator: Adobe Illustrator 22.1.0, SVG Export Plug-In . SVG Version: 6.00 Build 0)  -->
<svg xmlns="http://www.w3.org/2000/svg" xmlns:xlink="http://www.w3.org/1999/xlink" version="1.1" id="Layer_1_1_" x="0px" y="0px" viewBox="0 0 64 64" style="enable-background:new 0 0 64 64;" xml:space="preserve" width="512" height="512">
<g>
	<path style="fill:#F0BC5E;" d="M49,22v-7c0-1.105-0.895-2-2-2H23c-1.105,0-2,0.895-2,2v3h4.893c0.996,0,1.92,0.681,2.08,1.664   C28.176,20.917,27.215,22,26,22h-5v27c0,1.105,0.895,2,2,2h24c1.105,0,2-0.895,2-2v-3H32V22H49z"/>
	<g>
		<rect x="31" y="5" width="8" height="2"/>
		<rect x="41" y="5" width="2" height="2"/>
		<rect x="27" y="5" width="2" height="2"/>
		<rect x="32" y="57" width="6" height="2"/>
		<path d="M53,21V6c0-2.757-2.243-5-5-5H22c-2.757,0-5,2.243-5,5v11c-1.505,0-2.997,0.497-4.2,1.4L10.667,20H8v2h3.333L14,20    c0.859-0.645,1.925-1,3-1h9c0.551,0,1,0.448,1,1s-0.449,1-1,1h-6.781l-0.189,0.758C18.552,23.667,16.845,25,14.877,25H14v2h0.877    c0.743,0,1.455-0.142,2.123-0.382V39c-1.075,0-2.141-0.355-3-1l-2.667-2H8v2h2.667l2.133,1.6c1.204,0.903,2.695,1.4,4.2,1.4v17    c0,2.757,2.243,5,5,5h26c2.757,0,5-2.243,5-5V45H33V31h8v-8h12v8h8v14h-6v2h8V21H53z M22,3h26c1.654,0,3,1.346,3,3v3H19V6    C19,4.346,20.346,3,22,3z M48,61H22c-1.654,0-3-1.346-3-3v-3h32v3C51,59.654,49.654,61,48,61z M51,47v6H19V25.444    c0.751-0.655,1.356-1.482,1.729-2.444H26c1.654,0,3-1.346,3-3s-1.346-3-3-3h-7v-6h32v10H31v26H51z M39,29h-6v-6h6V29z M55,29v-6h6    v6H55z"/>
		<rect x="35" y="25" width="2" height="2"/>
		<rect x="57" y="25" width="2" height="2"/>
		<polygon points="47,31 47,25 43,25 43,27 45,27 45,31   "/>
		<rect x="49" y="25" width="2" height="4"/>
		<polygon points="41,33 35,33 35,35 39,35 39,39 41,39   "/>
		<polygon points="35,37 35,43 41,43 41,41 37,41 37,37   "/>
		<polygon points="51,31 49,31 49,33 43,33 43,35 51,35   "/>
		<polygon points="59,39 59,33 53,33 53,35 57,35 57,39   "/>
		<polygon points="53,43 59,43 59,41 55,41 55,37 53,37   "/>
		<rect x="43" y="37" width="2" height="6"/>
		<rect x="47" y="41" width="4" height="2"/>
		<rect x="47" y="37" width="4" height="2"/>
	</g>
	<g>
		<path style="fill:#F0BC5E;" d="M9,40H1V18h8V40z"/>
	</g>
</g>
</svg>
