<svg height="472pt" viewBox="-3 0 471 472" width="472pt" xmlns="http://www.w3.org/2000/svg"><path d="m336.5 344h80v24h-80zm0 0" fill="#3b869e"/><path d="m48.5 344h72v24h-72zm0 0" fill="#3b869e"/><path d="m24.5 320h16v16h-16zm0 0" fill="#787d82"/><path d="m424.5 320h16v16h-16zm0 0" fill="#787d82"/><path d="m416.5 248h32v72h-32zm0 0" fill="#3b869e"/><path d="m24.5 264h32v72h-32zm0 0" fill="#3b869e"/><path d="m296.5 296h-128v-46.113281c0-6.503907 1.511719-12.917969 4.425781-18.734375 7.097657-14.1875 21.597657-23.152344 37.460938-23.152344h44.226562c15.863281 0 30.363281 8.964844 37.460938 23.152344 2.914062 5.816406 4.425781 12.230468 4.425781 18.734375zm0 0" fill="#b94137"/><path d="m128.5 288h40v-16c0-8.835938-7.164062-16-16-16h-24zm0 0" fill="#f9d7c0"/><path d="m88.5 456h-40c-4.417969 0-8-3.582031-8-8v-80h16v72h24c4.417969 0 8 3.582031 8 8zm0 0" fill="#9c9c9c"/><path d="m88.5 456h-80v-8c0-4.417969 3.582031-8 8-8h64c4.417969 0 8 3.582031 8 8zm0 0" fill="#d9d9d9"/><path d="m200.5 312h64v152h-64zm0 0" fill="#7f614b"/><path d="m200.5 312h64v24h-64zm0 0" fill="#765a46"/><path d="m48.5 40c0-17.671875 14.328125-32 32-32h80c17.671875 0 32 14.328125 32 32s-14.328125 32-32 32h-48l-40 32v-33.128906c-14.101562-3.617188-23.972656-16.3125-24-30.871094zm0 0" fill="#fbedbf"/><path d="m416.5 32c0-17.671875-14.328125-32-32-32h-80c-17.671875 0-32 14.328125-32 32s14.328125 32 32 32h48l40 32v-33.128906c14.101562-3.617188 23.972656-16.3125 24-30.871094zm0 0" fill="#eaeae8"/><path d="m232.5 136c13.253906 0 24 10.746094 24 24v24c0 13.253906-10.746094 24-24 24s-24-10.746094-24-24v-24c0-13.253906 10.746094-24 24-24zm0 0" fill="#f9d7c0"/><path d="m192.5 256h16v40h-16zm0 0" fill="#a83b32"/><path d="m256.5 256h16v40h-16zm0 0" fill="#a83b32"/><path d="m72.5 208c-13.253906 0-24-10.746094-24-24v-24c0-13.253906 10.746094-24 24-24s24 10.746094 24 24v24c0 13.253906-10.746094 24-24 24zm0 0" fill="#f9d7c0"/><path d="m32.5 264v88h64c8.835938 0 16 7.164062 16 16s-7.164062 16-16 16h-80c-8.835938 0-16-7.164062-16-16v-104c0-8.835938 7.164062-16 16-16s16 7.164062 16 16zm0 0" fill="#3b869e"/><path d="m48.5 352h56v-108c0-19.882812-16.117188-36-36-36s-36 16.117188-36 36v92c0 8.835938 7.164062 16 16 16zm0 0" fill="#da922a"/><path d="m104.5 244v12h32v32h-56c-8.835938 0-16-7.164062-16-16v-28c0-11.046875 8.953125-20 20-20s20 8.953125 20 20zm0 0" fill="#fbb540"/><path d="m32.5 320h80c17.671875 0 32 14.328125 32 32v88h-32v-72c0-8.835938-7.164062-16-16-16h-48c-8.835938 0-16-7.164062-16-16zm0 0" fill="#9c9c9c"/><path d="m112.5 464h56v-16c0-8.835938-7.164062-16-16-16h-40zm0 0" fill="#e4e4e2"/><path d="m72.5 472c-.511719-.011719-1.019531-.066406-1.519531-.160156-.53125-.074219-1.042969-.234375-1.519531-.480469-.511719-.175781-1-.417969-1.449219-.71875l-1.191407-.960937c-1.464843-1.53125-2.292968-3.5625-2.320312-5.679688.011719-1.046875.230469-2.078125.640625-3.039062.386719-.980469.957031-1.875 1.679687-2.640626 3.207032-2.960937 8.152344-2.960937 11.359376 0 .722656.765626 1.292968 1.660157 1.679687 2.640626.851563 1.9375.851563 4.140624 0 6.078124-.386719.980469-.957031 1.875-1.679687 2.640626-1.535157 1.460937-3.5625 2.289062-5.679688 2.320312zm0 0" fill="#9c9c9c"/><path d="m24.5 472c-2.117188-.03125-4.148438-.859375-5.679688-2.320312-.707031-.777344-1.273437-1.671876-1.679687-2.640626-.855469-1.9375-.855469-4.140624 0-6.078124.386719-.980469.957031-1.875 1.679687-2.640626 3.207032-2.960937 8.152344-2.960937 11.359376 0 .722656.765626 1.292968 1.660157 1.679687 2.640626.851563 1.9375.851563 4.140624 0 6.078124-.40625.96875-.972656 1.863282-1.679687 2.640626-1.535157 1.460937-3.5625 2.289062-5.679688 2.320312zm0 0" fill="#9c9c9c"/><path d="m336.5 288h-40v-16c0-8.835938 7.164062-16 16-16h24zm0 0" fill="#f9d7c0"/><g fill="#e8dbb1"><path d="m144.5 32h16v16h-16zm0 0"/><path d="m112.5 32h16v16h-16zm0 0"/><path d="m80.5 32h16v16h-16zm0 0"/></g><path d="m304.5 24h16v16h-16zm0 0" fill="#dededc"/><path d="m336.5 24h16v16h-16zm0 0" fill="#dededc"/><path d="m224.5 96h16v16h-16zm0 0" fill="#b9b9b9"/><path d="m192.5 96h16v16h-16zm0 0" fill="#d9d9d9"/><path d="m256.5 96h16v16h-16zm0 0" fill="#d9d9d9"/><path d="m368.5 24h16v16h-16zm0 0" fill="#dededc"/><path d="m40.5 384h16v8h-16zm0 0" fill="#787d82"/><path d="m376.5 456h40c4.417969 0 8-3.582031 8-8v-80h-16v72h-24c-4.417969 0-8 3.582031-8 8zm0 0" fill="#9c9c9c"/><path d="m376.5 456h80v-8c0-4.417969-3.582031-8-8-8h-64c-4.417969 0-8 3.582031-8 8zm0 0" fill="#d9d9d9"/><path d="m432.5 264v88h-64c-8.835938 0-16 7.164062-16 16s7.164062 16 16 16h80c8.835938 0 16-7.164062 16-16v-104c0-8.835938-7.164062-16-16-16s-16 7.164062-16 16zm0 0" fill="#3b869e"/><path d="m392.5 472c.511719-.011719 1.019531-.066406 1.519531-.160156.53125-.074219 1.042969-.234375 1.519531-.480469.511719-.175781 1-.417969 1.449219-.71875l1.191407-.960937c1.464843-1.53125 2.292968-3.5625 2.320312-5.679688-.011719-1.046875-.230469-2.078125-.640625-3.039062-.386719-.980469-.957031-1.875-1.679687-2.640626-3.207032-2.960937-8.152344-2.960937-11.359376 0-.722656.765626-1.292968 1.660157-1.679687 2.640626-.851563 1.9375-.851563 4.140624 0 6.078124.386719.980469.957031 1.875 1.679687 2.640626 1.535157 1.460937 3.5625 2.289062 5.679688 2.320312zm0 0" fill="#9c9c9c"/><path d="m440.5 472c2.117188-.03125 4.148438-.859375 5.679688-2.320312.707031-.777344 1.273437-1.671876 1.679687-2.640626.855469-1.9375.855469-4.140624 0-6.078124-.386719-.980469-.957031-1.875-1.679687-2.640626-3.207032-2.960937-8.152344-2.960937-11.359376 0-.722656.765626-1.292968 1.660157-1.679687 2.640626-.851563 1.9375-.851563 4.140624 0 6.078124.40625.96875.972656 1.863282 1.679687 2.640626 1.535157 1.460937 3.5625 2.289062 5.679688 2.320312zm0 0" fill="#9c9c9c"/><path d="m424.5 392h-16v-8h16zm0 0" fill="#787d82"/><path d="m392.5 136c13.253906 0 24 10.746094 24 24v24c0 13.253906-10.746094 24-24 24s-24-10.746094-24-24v-24c0-13.253906 10.746094-24 24-24zm0 0" fill="#f9d7c0"/><path d="m416.5 352h-56v-108c0-19.882812 16.117188-36 36-36s36 16.117188 36 36v92c0 8.835938-7.164062 16-16 16zm0 0" fill="#6b9777"/><path d="m360.5 244v12h-32v32h56c8.835938 0 16-7.164062 16-16v-28c0-11.046875-8.953125-20-20-20s-20 8.953125-20 20zm0 0" fill="#85bc94"/><path d="m432.5 320h-80c-17.671875 0-32 14.328125-32 32v88h32v-72c0-8.835938 7.164062-16 16-16h48c8.835938 0 16-7.164062 16-16zm0 0" fill="#787d82"/><path d="m352.5 464h-56v-16c0-8.835938 7.164062-16 16-16h40zm0 0" fill="#b9b9b9"/><path d="m168.5 288h128c8.835938 0 16 7.164062 16 16s-7.164062 16-16 16h-128c-8.835938 0-16-7.164062-16-16s7.164062-16 16-16zm0 0" fill="#9c775c"/></svg>