<svg enable-background="new 0 0 64 64" height="512" viewBox="0 0 64 64" width="512" xmlns="http://www.w3.org/2000/svg"><g id="Icons"><g><g><path d="m50 48-6.713-5.37c-2.128-1.703-4.772-2.63-7.496-2.63h-11.791v-20h11.791c2.725 0 5.369-.927 7.496-2.63l6.713-5.37z" fill="#fab400"/></g><g><path d="m8 40h16v-20h-16c-2.209 0-4 1.791-4 4v12c0 2.209 1.791 4 4 4z" fill="#fa6450"/></g><g><path d="m8 36v-12c0-2.209 1.791-4 4-4h-4c-2.209 0-4 1.791-4 4v12c0 2.209 1.791 4 4 4h4c-2.209 0-4-1.791-4-4z" fill="#dc4632"/></g><g><path d="m52 52c-1.105 0-2-.895-2-2v-40c0-1.105.895-2 2-2 1.105 0 2 .895 2 2v40c0 1.105-.895 2-2 2z" fill="#fa6450"/></g><g><path d="m54 36v-12c3.314 0 6 2.686 6 6 0 3.314-2.686 6-6 6z" fill="#505050"/></g><g><path d="m56 24.349c-.626-.222-1.298-.349-2-.349v12c.702 0 1.374-.127 2-.349z" fill="#3c3c3c"/></g><g><g><path d="m18 48h3c.552 0 1-.448 1-1v-2c0-.552-.448-1-1-1h-3z" fill="#288cb4"/></g><g><path d="m22 40-.944 1.889c-.695 1.388-1.056 2.919-1.056 4.472v11.639c0 1.105-.895 2-2 2h-4c-1.105 0-2-.895-2-2v-18z" fill="#64c8f0"/></g><g><path d="m14 58v-18h-2v18c0 1.105.895 2 2 2h2c-1.105 0-2-.895-2-2z" fill="#46aad2"/></g></g><g><path d="m10 34h2v2h-2z" fill="#be2814"/></g><g><path d="m10 30h2v2h-2z" fill="#be2814"/></g></g></g></svg>