<svg id="Layer_1" enable-background="new 0 0 512 512" height="512" viewBox="0 0 512 512" width="512" xmlns="http://www.w3.org/2000/svg"><g><g><path d="m409.6 460.8v34.133c0 9.426-7.641 17.067-17.067 17.067h-324.266c-9.426 0-17.067-7.641-17.067-17.067v-443.733c0-9.426 7.641-17.067 17.067-17.067h34.133z" fill="#d5c6e4"/><path d="m385.906 427.891v67.042c0 9.426-7.641 17.067-17.067 17.067h23.694c9.426 0 17.067-7.641 17.067-17.067v-34.133z" fill="#c6b4da"/><path d="m443.733 460.8h-324.266c-9.426 0-17.067-7.641-17.067-17.067v-426.666c0-9.426 7.641-17.067 17.067-17.067h248.931c4.526 0 8.867 1.798 12.068 4.999l75.336 75.336c3.201 3.201 4.999 7.541 4.999 12.068v351.331c-.001 9.425-7.642 17.066-17.068 17.066z" fill="#f9f5f5"/><path d="m455.801 80.335h-23.694c3.201 3.201 4.999 7.542 4.999 12.068v351.331c0 9.426-7.641 17.067-17.067 17.067h23.694c9.426 0 17.067-7.641 17.067-17.067v-351.332c0-4.526-1.798-8.867-4.999-12.067z" fill="#e2d8ec"/><path d="m458.911 84.624c-.803-1.568-1.841-3.02-3.11-4.289l-75.335-75.336c-1.172-1.172-2.499-2.151-3.929-2.927-.694.342-1.07.53-1.07.53v65.665c0 9.426 7.641 17.067 17.067 17.067h65.6z" fill="#d5c6e4"/></g><g><path d="m307.2 401.067c0 14.138-11.462 25.6-25.6 25.6-14.139 0-25.6-11.462-25.6-25.6v-128l25.6-5.426 25.6 5.426z" fill="#fc974d"/><path d="m283.506 268.045v133.022c0 9.863-5.581 18.417-13.753 22.692 3.543 1.854 7.571 2.908 11.847 2.908 14.138 0 25.6-11.461 25.6-25.6v-128z" fill="#f47f31"/><path d="m256 231.756h51.2v41.31h-51.2z" fill="#ffdc67"/><path d="m283.506 231.756h23.694v41.31h-23.694z" fill="#ffb957"/><path d="m375.467 238.933h17.65c9.103 0 16.483-7.38 16.483-16.483v-69.434c0-9.103-7.38-16.483-16.483-16.483h-17.65-187.734-17.65c-9.103 0-16.483 7.38-16.483 16.483v69.434c0 9.103 7.38 16.483 16.483 16.483h17.65z" fill="#fc974d"/><path d="m393.117 136.533h-17.65-6.044c9.103 0 16.483 7.38 16.483 16.483v69.434c0 9.103-7.38 16.483-16.483 16.483h6.044 17.65c9.103 0 16.483-7.38 16.483-16.483v-69.434c0-9.103-7.38-16.483-16.483-16.483z" fill="#f47f31"/><g fill="#ffdc67"><path d="m187.733 238.933c0 9.426 7.641 17.067 17.067 17.067s17.067-7.641 17.067-17.067v-102.4c0-9.426-7.641-17.067-17.067-17.067s-17.067 7.641-17.067 17.067z"/><path d="m341.333 238.933c0 9.426 7.641 17.067 17.067 17.067s17.067-7.641 17.067-17.067v-102.4c0-9.426-7.641-17.067-17.067-17.067s-17.067 7.641-17.067 17.067z"/></g></g></g></svg>